<svg width="38" height="33" viewBox="0 0 38 33" fill="none" xmlns="http://www.w3.org/2000/svg">
<path fill-rule="evenodd" clip-rule="evenodd" d="M1.70445 0.561134H7.5592C8.49858 0.561134 9.2632 1.32575 9.2632 2.26513V30.9272C9.2632 31.8666 8.49858 32.6312 7.5592 32.6312H1.70445C0.76507 32.6312 0.000456719 31.8666 0.000456719 30.9272V2.28697C-0.0213894 1.32575 0.743224 0.561134 1.70445 0.561134ZM23.1573 1.19467L28.8591 0.0368283C29.7767 -0.159786 30.6942 0.451903 30.9127 1.36944L37.1606 29.4416C37.3572 30.3592 36.7892 31.2767 35.8717 31.4515L30.1699 32.6093C29.2524 32.8059 28.3348 32.1943 28.1164 31.2767L21.8684 3.20451C21.6499 2.28697 22.2398 1.39129 23.1573 1.19467ZM24.053 5.25804L29.7548 4.1002L30.2136 6.19742L24.5118 7.35526L24.053 5.25804ZM24.7958 8.53495L30.4976 7.37711L30.7379 8.42572L25.0361 9.58356L24.7958 8.53495ZM29.0339 27.6284L34.7357 26.4706L35.2163 28.6552L29.5145 29.813L29.0339 27.6284ZM12.7804 0.561134H18.6352C19.5745 0.561134 20.3392 1.32575 20.3392 2.26513V30.9272C20.3392 31.8666 19.5745 32.6312 18.6352 32.6312H12.7804C11.841 32.6312 11.0764 31.8666 11.0764 30.9272V2.28697C11.0764 1.32575 11.841 0.561134 12.7804 0.561134ZM12.7804 4.69004H18.6352V6.83096H12.7804V4.69004ZM12.7804 8.05434H18.6352V9.1248H12.7804V8.05434ZM12.7804 27.5192H18.6352V29.7475H12.7804V27.5192ZM1.70445 4.69004H7.5592V6.83096H1.70445V4.69004ZM1.70445 8.05434H7.5592V9.1248H1.70445V8.05434ZM1.70445 27.5192H7.5592V29.7475H1.70445V27.5192Z" fill="white"/>
</svg>
