<svg width="481" height="489" viewBox="0 0 481 489" fill="none" xmlns="http://www.w3.org/2000/svg">
<path d="M134.665 91.3917C153.472 91.3051 168.648 75.9449 168.561 57.0838C168.475 38.2227 153.159 23.0031 134.352 23.0897C115.546 23.1763 100.37 38.5365 100.457 57.3976C100.543 76.2587 115.859 91.4784 134.665 91.3917Z" fill="#92B5F9"/>
<path d="M147.313 87.9014C130.472 94.9915 111.003 87.0105 103.934 70.0835C96.864 53.1936 104.822 33.6682 121.7 26.5781C138.541 19.4881 158.01 27.469 165.08 44.396C172.149 61.2859 164.154 80.8114 147.313 87.9014Z" fill="#92B5F9"/>
<path d="M157.542 71.6539C165.409 58.9125 161.488 42.1872 148.783 34.2969C136.079 26.4065 119.402 30.3391 111.534 43.0805C103.667 55.8219 107.588 72.5472 120.293 80.4376C132.997 88.3279 149.674 84.3953 157.542 71.6539Z" fill="white"/>
<path d="M144.426 80.9597C131.36 86.4535 116.296 80.2544 110.855 67.1879C105.377 54.0843 111.558 38.9762 124.587 33.5194C137.653 28.0256 152.717 34.2247 158.158 47.2912C163.636 60.3948 157.455 75.5029 144.426 80.9597Z" fill="white"/>
<path d="M113.483 64.5892L109.264 66.371C108.56 66.6679 108.227 67.4846 108.523 68.1528C108.819 68.8581 109.634 69.1921 110.3 68.8952L114.519 67.1134C115.223 66.8164 115.556 65.9998 115.26 65.3316C115.001 64.6263 114.186 64.2922 113.483 64.5892Z" fill="#92B5F9"/>
<path d="M142.538 76.5052C141.835 76.8022 141.502 77.6188 141.798 78.287L143.575 82.5187C143.871 83.224 144.685 83.5581 145.352 83.2612C146.055 82.9642 146.388 82.1475 146.092 81.4794L144.315 77.2476C144.056 76.5423 143.242 76.2082 142.538 76.5052Z" fill="#92B5F9"/>
<path d="M158.676 45.5833L154.457 47.3651C153.754 47.6621 153.42 48.4787 153.717 49.1469C154.013 49.8522 154.827 50.1863 155.493 49.8893L159.713 48.1075C160.416 47.8106 160.749 46.9939 160.453 46.3257C160.194 45.6204 159.38 45.2864 158.676 45.5833Z" fill="#92B5F9"/>
<path d="M123.625 31.1805C122.921 31.4775 122.588 32.2941 122.884 32.9623L124.661 37.194C124.957 37.8993 125.771 38.2334 126.438 37.9365C127.141 37.6395 127.474 36.8228 127.178 36.1547L125.401 31.9229C125.105 31.2176 124.291 30.8835 123.625 31.1805Z" fill="#92B5F9"/>
<path d="M133.137 19.6363L133.507 14.2538C133.544 13.8083 133.914 13.4742 134.359 13.5114L140.54 13.9568C140.984 13.9939 141.317 14.3651 141.28 14.8106L140.91 20.1931C140.873 20.6385 140.503 20.9726 140.059 20.9355L133.877 20.49C133.433 20.4529 133.1 20.0817 133.137 19.6363Z" fill="#92B5F9"/>
<path d="M109.078 29.8821L104.97 26.3557C104.637 26.0587 104.119 26.0958 103.86 26.4299L99.8621 31.1442C99.566 31.4783 99.603 31.998 99.9361 32.2578L104.045 35.7843C104.378 36.0813 104.896 36.0441 105.192 35.7101L109.189 30.9957C109.449 30.6617 109.411 30.1791 109.078 29.8821Z" fill="#92B5F9"/>
<path d="M115.704 21.0469C115.297 21.1954 114.852 21.0098 114.667 20.6386L113.187 17.0379C113.039 16.6295 113.224 16.1841 113.594 15.9985L120.886 12.9175C121.293 12.769 121.737 12.9546 121.922 13.3258L123.403 16.9265C123.551 17.3348 123.366 17.7803 122.995 17.9659L115.704 21.0469Z" fill="#92B5F9"/>
<path d="M117.591 22.3463C114.038 22.6062 110.559 20.6017 109.078 17.1494C107.265 12.8063 109.3 7.79503 113.631 5.97612C117.962 4.15721 122.958 6.19885 124.772 10.542C126.216 14.0313 125.216 17.929 122.514 20.2676L123.329 22.1979C127.03 19.3396 128.51 14.254 126.623 9.72531C124.365 4.34281 118.184 1.81861 112.817 4.04585C107.45 6.31021 104.933 12.5094 107.154 17.8919C109.041 22.4206 113.705 24.9077 118.332 24.2766L117.591 22.3463Z" fill="#92B5F9"/>
<path d="M121.071 25.13C121.922 24.7588 122.773 24.4619 123.625 24.1649L121.478 19.0051L117.443 20.7127L119.59 25.8353C120.071 25.5384 120.553 25.3156 121.071 25.13Z" fill="#92B5F9"/>
<path d="M136.802 56.2369C137.32 57.499 136.728 58.9838 135.469 59.5035C134.211 60.0232 132.73 59.4292 132.212 58.1671C131.694 56.905 132.286 55.4202 133.544 54.9005C134.803 54.3437 136.246 54.9376 136.802 56.2369Z" fill="#92B5F9"/>
<path d="M137.135 36.7117L135.358 57.2765C135.321 57.7962 134.84 58.1674 134.359 58.1303C133.84 58.0932 133.47 57.6106 133.507 57.1281C133.507 57.0538 133.359 57.9447 137.135 36.7117Z" fill="#92B5F9"/>
<path d="M152.532 67.3732L134.137 58.093C133.655 57.8703 133.47 57.2764 133.729 56.8309C133.951 56.3484 134.544 56.1628 134.988 56.4226C135.062 56.4597 134.285 55.9771 152.532 67.3732Z" fill="#92B5F9"/>
<path d="M135.432 56.7939C135.654 57.3136 135.395 57.9075 134.877 58.1302C134.359 58.3529 133.766 58.0931 133.544 57.5734C133.322 57.0537 133.581 56.4598 134.1 56.2371C134.618 56.0143 135.21 56.2742 135.432 56.7939Z" fill="#92B5F9"/>
<path d="M387.678 205.017C387.419 204.72 387.049 204.609 386.679 204.72C384.865 205.203 381.608 204.498 380.017 203.904L378.277 195.18C379.535 194.03 382.274 192.099 384.125 191.84C384.495 191.802 384.828 191.543 384.939 191.171L387.16 184.564C387.271 184.193 387.197 183.822 386.901 183.525C385.569 182.188 384.569 178.996 384.273 177.325L390.899 171.46C392.527 171.98 395.562 173.391 396.71 174.875C396.932 175.172 397.339 175.321 397.709 175.247L404.519 173.873C404.89 173.799 405.186 173.502 405.297 173.131C405.778 171.312 408.036 168.862 409.331 167.748L417.733 170.569C418.103 172.24 418.4 175.581 417.696 177.288C417.548 177.622 417.622 178.031 417.881 178.328L422.471 183.562C422.73 183.859 423.1 183.97 423.47 183.859C425.284 183.376 428.541 184.081 430.133 184.675L431.872 193.399C430.614 194.549 427.875 196.48 426.024 196.74C425.654 196.777 425.321 197.037 425.21 197.408L422.989 204.015C422.878 204.386 422.952 204.758 423.248 205.055C424.581 206.391 425.58 209.583 425.876 211.254L419.251 217.119C417.622 216.599 414.587 215.188 413.44 213.704C413.218 213.407 412.811 213.258 412.44 213.332L405.63 214.706C405.26 214.78 404.964 215.077 404.853 215.448C404.371 217.267 402.114 219.717 400.818 220.831L392.416 218.01C392.046 216.339 391.75 212.998 392.453 211.291C392.601 210.957 392.527 210.548 392.268 210.251L387.678 205.017ZM406.777 202.864C411.515 201.899 414.55 197.296 413.588 192.545C412.625 187.793 408.036 184.75 403.298 185.715C398.56 186.68 395.525 191.283 396.488 196.034C397.45 200.786 402.04 203.83 406.777 202.864ZM407.888 208.395C415.624 206.836 420.657 199.264 419.103 191.468C417.548 183.673 409.998 178.662 402.225 180.221C394.489 181.78 389.455 189.353 391.01 197.148C392.564 204.906 400.115 209.954 407.888 208.395Z" fill="#FA7167"/>
<path d="M444.05 236.199C444.124 235.902 444.346 235.679 444.642 235.642L450.046 234.566C450.342 234.491 450.638 234.603 450.823 234.863C451.711 236.051 454.117 237.127 455.413 237.535L460.669 232.895C460.41 231.559 459.632 229.035 458.596 227.995C458.374 227.773 458.3 227.476 458.411 227.179L460.151 221.945C460.262 221.648 460.484 221.462 460.78 221.425C462.223 221.239 464.407 219.68 465.406 218.789L464 211.885C462.741 211.44 460.151 210.846 458.707 211.254C458.411 211.328 458.115 211.254 457.893 211.031L454.228 206.874C454.043 206.651 453.969 206.317 454.08 206.057C454.636 204.684 454.376 202.048 454.117 200.712L447.455 198.484C446.419 199.375 444.642 201.306 444.272 202.753C444.198 203.05 443.976 203.273 443.68 203.31L438.276 204.387C437.979 204.461 437.683 204.349 437.498 204.09C436.61 202.902 434.204 201.825 432.909 201.417L427.653 206.057C427.912 207.393 428.689 209.918 429.725 210.957C429.948 211.18 430.022 211.477 429.911 211.774L428.171 217.008C428.06 217.305 427.838 217.49 427.542 217.527C426.098 217.713 423.914 219.272 422.915 220.163L424.322 227.067C425.58 227.513 428.171 228.107 429.614 227.698C429.911 227.624 430.207 227.698 430.429 227.921L434.093 232.079C434.278 232.301 434.352 232.635 434.241 232.895C433.686 234.269 433.945 236.904 434.204 238.241L440.867 240.468C441.903 239.577 443.68 237.61 444.05 236.199ZM445.937 227.884C441.274 228.812 436.758 225.805 435.796 221.128C434.87 216.451 437.868 211.922 442.532 210.957C447.196 210.029 451.711 213.036 452.674 217.713C453.599 222.39 450.564 226.919 445.937 227.884Z" fill="#FA7167"/>
<path d="M78.8386 160.361L72.8424 158.097L67.5865 161.772C66.9943 162.18 66.18 161.735 66.217 160.992L66.5131 154.57L61.4053 150.673C60.8131 150.227 60.9981 149.299 61.7014 149.114L67.8826 147.406L69.9924 141.318C70.2145 140.613 71.1768 140.502 71.5469 141.133L75.0632 146.515L81.4665 146.664C82.2068 146.664 82.5769 147.517 82.1328 148.111L78.1353 153.123L79.986 159.285C80.1711 159.99 79.5048 160.621 78.8386 160.361Z" fill="#92B5F9"/>
<path d="M88.0179 114.48L84.7608 105.682L76.3957 108.207L72.8054 99.6689L64.5144 101.079L60.7761 95.1401L57.815 97.0333L62.7748 104.977L70.6216 103.641L74.36 112.513L82.577 110.026L85.538 118.006L88.0179 114.48Z" fill="#7C9AF2"/>
<path d="M424.137 128.586L415.957 124.094L411.256 131.444L403.002 127.361L397.635 133.857L390.973 131.816L389.936 135.231L398.893 137.94L403.927 131.816L412.551 136.047L417.141 128.809L424.581 132.892L424.137 128.586Z" fill="#BED1F9"/>
<path d="M207.941 17.8179L204.425 26.5041L212.272 30.3276L209.2 39.0509L216.232 43.6168L215.011 50.5212L218.49 51.1523L220.156 41.9092L213.456 37.5661L216.676 28.5087L208.941 24.7595L212.124 16.8899L207.941 17.8179Z" fill="#92B5F9"/>
<path d="M414.772 241.953L413.033 238.537L409.146 238.686L407.481 234.714L403.409 236.162L401.299 231.744L397.376 232.598L394.711 228.701L396.155 227.661L398.19 230.594L402.336 229.703L404.334 233.935L408.48 232.487L410.331 236.867L414.106 236.719L415.697 239.874L418.177 239.28L418.622 241.025L414.772 241.953Z" fill="#FA7167"/>
<path d="M342.966 84.1154L341.153 78.6957L349.518 74.7981L347.815 66.5573L353.626 62.6225L351.627 59.6899L343.891 64.924L345.483 72.7564L336.785 76.8026L339.524 84.9691L342.966 84.1154Z" fill="#FA7167"/>
<path d="M409.998 71.606C419.214 85.7489 406.666 105.386 390.232 102.453C387.271 101.934 384.199 102.602 381.571 104.235L372.503 109.84C369.986 111.399 366.84 110.731 365.285 108.281L361.769 102.973C360.177 100.56 360.696 97.1821 362.953 95.2518C371.17 88.1989 374.65 86.1944 375.76 80.2922C378.98 62.994 400.744 57.463 409.998 71.606Z" fill="#BED1F9"/>
<path d="M388.307 79.4012C388.122 78.6217 387.937 77.7679 387.863 76.9142C387.456 71.9771 391.269 70.2696 393.267 71.5317C394.563 72.3483 395.081 74.2415 394.341 76.0233C393.674 77.6195 392.231 78.8073 390.787 80.0694C391.565 82.8163 392.786 85.3406 394.452 87.6049C398.93 84.8951 402.151 86.3799 402.373 88.8299C402.521 90.389 401.484 92.0223 399.967 92.6904C399.041 93.0988 396.71 93.6184 393.934 90.5374C386.346 95.8828 376.463 103.827 376.426 103.864L375.168 102.119C375.205 102.082 385.05 94.2124 392.601 88.867C391.047 86.714 389.825 84.3012 388.974 81.7027C380.35 89.2753 372.725 95.2518 372.466 95.4745L371.207 93.7298C371.725 93.2472 379.128 87.4935 388.307 79.4012ZM391.972 73.3877C391.306 73.1279 389.529 73.8703 390.232 77.7308C392.231 75.949 392.86 75.1695 391.972 73.3877ZM395.821 89.3125C396.932 90.4632 398.597 91.5026 399.708 90.2776C401.188 88.6443 399.115 87.4564 395.821 89.3125Z" fill="white"/>
<path d="M381.793 104.124C381.719 104.161 381.645 104.198 381.571 104.272L372.503 109.877C369.986 111.436 366.84 110.768 365.285 108.318L361.769 102.973C360.177 100.56 360.696 97.182 362.953 95.2517C366.618 92.0965 369.32 89.9806 371.318 88.0503L381.793 104.124Z" fill="#92B5F9"/>
<path d="M80.8742 369.536C80.8742 369.536 80.5781 368.089 80.5041 367.606C80.4301 367.049 80.356 365.305 80.356 365.305C80.356 365.305 80.356 359.254 80.8002 359.291C81.2444 359.328 81.8366 360.368 81.9476 360.739C82.0957 361.11 82.2807 361.518 82.3918 361.927C82.5398 362.298 82.91 362.521 83.3911 362.372C83.8723 362.224 83.6502 360.628 83.5022 360.108C82.947 358.437 80.5411 354.243 80.319 353.76C80.0599 353.203 81.9846 342.735 82.3548 339.06C83.132 333.121 84.2424 327.033 84.3535 326.402L94.9393 302.942L87.8698 295.703C87.8698 295.703 75.7664 321.539 75.3222 322.913C75.1001 323.544 74.3229 337.501 74.3599 337.501C74.3969 344.406 74.4709 350.456 74.4709 351.644C74.4709 351.644 73.4715 355.134 72.6943 357.287C71.917 359.477 72.1021 361.778 71.991 362.409C71.991 362.521 71.4358 364.711 71.8059 367.458C72.1391 369.833 72.9163 367.421 72.9163 367.421C72.9163 367.421 73.1014 362.929 73.4715 363.003C73.7306 363.077 73.4715 365.527 73.8047 368.126C73.8787 368.794 73.9897 369.462 74.0638 370.093C74.2858 371.689 75.3222 372.024 75.3592 370.279C75.3592 369.685 75.3592 368.683 75.2852 367.94C75.1742 367.161 75.3222 366.418 75.3222 365.75C75.3222 364.414 75.3222 363.449 75.3962 363.486C75.4703 363.523 75.6553 363.263 75.7664 363.968C75.9144 364.822 75.7664 366.715 76.0625 367.977C76.2476 368.683 76.4696 370.168 76.4696 370.168C76.4696 370.168 77.1729 372.543 77.2839 372.543C78.0612 372.506 78.0612 370.65 77.7281 369.722C77.8021 369.017 77.506 367.458 77.506 367.458C77.506 367.458 77.58 364.117 78.0612 364.117C78.4313 364.117 79.8008 372.098 80.5781 371.986C81.1703 371.949 80.8742 369.536 80.8742 369.536Z" fill="#FB9390"/>
<path d="M90.6088 316.528C90.6088 316.528 86.2042 315.786 83.9094 314.895C80.8002 313.744 78.7645 312.705 78.7645 312.705C78.7645 312.705 82.1697 298.079 86.4263 289.208C88.1659 285.533 89.9796 283.751 92.4225 283.343C92.4225 283.343 97.6414 286.795 97.4563 295.073C97.3823 297.04 90.6088 316.528 90.6088 316.528Z" fill="#E8605D"/>
<path d="M104.082 365.676L109.782 418.164C109.782 418.164 107.006 429.263 107.339 432.419C107.672 435.574 113.52 476.926 113.52 476.926L113.261 479.265V486.132H134.951C134.951 486.132 130.361 484.016 123.884 479.785C123.403 479.488 122.292 478.485 122.033 476.518C120.33 463.786 123.699 421.245 123.699 421.245L126.364 365.899L104.082 365.676Z" fill="#FB9390"/>
<path d="M86.6483 376.738C85.4269 377.072 83.5392 422.173 82.5028 424.178C76.0625 436.873 74.5449 475.405 74.5449 475.405L72.6572 480.898L70.6585 487.617C70.6585 487.617 77.0989 489.399 80.4671 487.469L80.0969 480.824L79.7638 474.736L96.0127 426.702L104.896 377.703L86.6483 376.738Z" fill="#FB9390"/>
<path d="M118.961 289.319C116.333 285.607 105.525 274.916 104.341 274.953C100.824 275.027 89.3503 275.027 87.0925 276.215V278.74C87.1665 290.024 88.5731 301.235 91.4231 312.148C93.3848 319.758 95.2725 327.887 95.0134 330.783L95.0504 330.82C101.713 337.464 112.188 336.908 118.258 329.669C118.258 329.669 118.221 321.577 119.183 314.227C120.664 302.645 125.438 298.488 118.961 289.319Z" fill="#FA7167"/>
<path d="M100.787 263.446C100.787 263.446 101.084 270.981 100.454 273.802C99.788 276.661 98.9367 276.883 104.563 277.737C106.784 278.071 108.893 278.591 108.893 278.591C108.893 278.591 108.301 274.396 108.227 272.652C108.079 269.756 108.893 260.736 108.893 260.736L100.787 263.446Z" fill="#FB9390"/>
<path d="M105.081 267.195C106.228 267.826 107.302 268.234 108.301 268.383C108.486 264.819 108.856 260.773 108.856 260.773L101.158 263.334C102.046 264.856 103.341 266.23 105.081 267.195Z" fill="#EF7F7F"/>
<path d="M102.564 242.398C102.564 242.398 99.3439 243.549 97.5673 247.076C95.7906 250.602 95.1244 260.587 102.12 264.485C105.562 266.415 109.56 266.787 111.447 265.079C113.372 263.334 113.113 259.511 112.928 256.319C112.595 249.971 111.188 240.357 102.564 242.398Z" fill="#FB9390"/>
<path d="M97.4193 254.908C97.8265 256.578 97.2713 258.174 96.2349 258.508C95.1985 258.842 94.0141 257.729 93.6069 256.058C93.1997 254.388 93.755 252.792 94.7913 252.458C95.8647 252.161 97.0492 253.237 97.4193 254.908Z" fill="#F7A491"/>
<path d="M80.097 480.824C77.1359 482.197 73.9528 481.344 72.6943 480.898L70.6216 487.654C70.6216 487.654 77.0989 489.584 80.4671 487.654L80.097 480.824Z" fill="#FA7167"/>
<path d="M113.039 487.84H135.617C136.468 487.766 136.653 487.06 136.357 486.615C135.765 485.724 133.137 485.056 130.176 483.645C124.994 484.202 114.112 480.527 113.261 479.265C112.817 481.752 112.595 487.728 113.039 487.84Z" fill="#FA7167"/>
<path d="M158.38 306.394C158.824 305.8 160.268 302.794 160.268 302.794C160.268 302.794 161.785 297.671 161.452 297.745C161.267 297.782 160.638 298.525 159.898 300.047C159.454 300.975 158.935 302.645 158.491 303.462C157.677 304.909 156.752 305.503 156.974 304.947C157.122 304.538 157.714 304.204 158.195 303.35C159.417 301.272 160.453 297.857 160.009 297.894C159.602 297.968 158.417 300.307 157.159 302.125C156.604 302.942 155.012 303.944 153.976 304.575C153.976 304.13 154.124 303.684 154.198 303.462C154.309 303.053 156.122 300.678 155.419 300.381C154.716 300.084 150.459 305.244 150.459 305.244L148.72 308.25L148.572 308.362C148.572 308.362 127.289 316.714 126.586 316.491C124.92 315.971 119.183 299.341 119.183 299.341L107.265 301.494C107.08 301.383 119.775 326.254 122.144 327.442C124.217 328.518 146.351 316.937 150.496 314.487C156.233 312.259 158.454 309.661 159.38 308.287C159.861 307.582 161.785 304.427 161.785 304.427C161.785 304.427 162.193 300.084 161.896 300.047C160.86 299.935 160.564 304.019 160.564 304.019C160.564 304.019 159.158 305.949 158.898 306.209C158.269 306.877 158.38 306.394 158.38 306.394Z" fill="#FB9390"/>
<path d="M99.566 284.901C97.9374 291.806 106.599 307.211 106.599 307.211C106.599 307.211 118.961 301.197 121.108 298.599C121.108 298.599 112.595 284.493 112.077 283.565C110.929 281.561 106.932 277.477 104.23 278.22C102.527 278.702 99.566 284.901 99.566 284.901Z" fill="#E8605D"/>
<path d="M101.528 267.863C102.453 261.515 112.928 248.597 108.893 243.215C105.636 238.835 99.8992 240.171 96.2719 241.396C79.7639 247.075 80.7262 267.9 75.5073 271.13C66.0689 277.032 60.2578 280.707 59.5916 293.996C58.7773 309.772 72.1391 317.79 88.1659 313.93C96.79 311.851 99.0849 309.03 102.527 300.863C104.082 297.188 107.228 285.681 106.377 280.076C105.599 275.064 100.787 272.948 101.528 267.863Z" fill="#0B0754"/>
<path d="M107.783 256.244C107.783 258.137 107.117 259.659 106.265 259.659C105.414 259.659 104.748 258.137 104.748 256.244C104.748 254.351 105.414 252.829 106.265 252.829C107.117 252.829 107.783 254.351 107.783 256.244Z" fill="#FB9390"/>
<path d="M128.474 399.827L129.251 368.683C129.399 359.885 127.659 351.162 124.18 343.144L118.295 329.632C115.926 330.411 113.668 331.079 111.188 331.376C105.747 332.007 100.417 331.376 95.0134 330.745C95.0134 330.968 94.9764 331.154 94.9394 331.302C93.977 335.905 88.499 346.113 86.2042 360.071C83.6132 375.921 82.6139 399.641 82.947 401.534C107.894 402.685 113.853 403.576 128.474 399.827Z" fill="#92B5F9"/>
<path d="M332.232 243.957L350.998 262.777C350.998 262.777 386.753 276.809 390.751 285.421C394.748 294.033 387.16 293.624 378.758 292.436C370.356 291.249 346.594 276.4 346.594 276.4L324.83 251.158L332.232 243.957Z" fill="#4951EC"/>
<path d="M387.197 281.635L382.533 279.964L373.539 284.159C373.539 284.159 368.876 287.314 366.655 295.146C364.397 302.979 366.655 349.714 370.393 357.212C374.168 364.748 387.197 281.635 387.197 281.635Z" fill="#BED1F9"/>
<path d="M416.697 469.094C416.697 469.094 419.991 471.21 420.287 472.212C420.546 473.177 422.989 483.831 422.064 485.056C421.176 486.281 417.844 485.687 419.14 486.578C420.102 487.246 426.394 487.765 430.392 486.689C431.576 486.355 431.021 476.444 431.206 474.922C431.465 472.732 432.983 467.757 432.058 466.458C431.613 465.827 429.022 464.714 426.728 463.823C424.285 462.857 421.583 460.185 421.583 460.185L416.697 469.094Z" fill="#FB9390"/>
<path d="M426.506 463.711C426.506 463.711 424.544 482.569 422.286 483.942C421.694 484.313 418.474 484.573 418.178 486.132C418.178 486.169 418.104 487.728 419.066 487.766L431.243 487.729C431.243 487.729 431.354 478.448 431.28 474.848C431.28 474.848 432.946 465.567 432.428 464.899C431.872 464.157 426.506 463.711 426.506 463.711Z" fill="#0B0754"/>
<path d="M464.37 469.094C464.37 469.094 467.664 471.21 467.961 472.212C468.257 473.214 470.662 483.831 469.737 485.056C468.812 486.281 465.518 485.687 466.813 486.578C467.775 487.246 474.068 487.765 478.065 486.689C479.25 486.355 478.694 476.444 478.88 474.922C479.139 472.732 480.656 467.757 479.731 466.458C479.287 465.827 476.696 464.714 474.401 463.823C471.958 462.857 469.256 460.185 469.256 460.185L464.37 469.094Z" fill="#FB9390"/>
<path d="M404.557 346.633C404.557 346.633 415.698 368.794 417.955 374.77L434.908 417.941L472.328 462.078C472.328 462.078 469.589 469.168 465.444 471.061C465.444 471.061 420.324 434.534 416.623 428.781C410.96 420.02 385.199 366.269 385.199 366.269L380.424 355.95L404.557 346.633Z" fill="#E8605D"/>
<path d="M377.648 346.41L377.833 365.305C377.833 365.305 369.764 427.073 371.356 430.748C375.168 439.695 417.03 470.022 417.03 470.022L422.73 460.185L392.675 426.517L404.075 393.739C407.259 386.129 414.032 371.43 413.884 363.152C413.736 356.062 399.745 339.691 399.745 339.691L377.648 346.41Z" fill="#FA7167"/>
<path d="M394.711 374.362C405.815 371.838 414.772 367.903 415.698 364.822C416.105 363.411 409.923 349.306 405.371 330.485C403.89 324.323 404.149 318.57 401.781 297.003C401.262 292.437 399.375 282.86 392.342 280.372C389.862 279.519 388.493 279.63 388.493 279.63C388.419 279.63 379.535 279.704 375.427 281.969C374.428 283.342 370.652 290.84 369.653 311.294C369.209 320.203 367.432 348.86 367.802 353.537C367.839 354.243 367.913 354.911 368.024 355.542C369.616 367.866 382.608 377.109 394.711 374.362Z" fill="#4951EC"/>
<path d="M375.131 295.926C379.684 295.406 391.047 280.483 391.047 280.483L391.01 280.446L383.977 269.31C383.977 269.31 373.65 271.203 375.649 274.358C377.685 277.514 378.795 285.086 378.795 285.086C378.758 285.161 378.721 285.272 378.647 285.42C378.018 286.942 375.686 291.508 375.131 295.926Z" fill="#FB9390"/>
<path d="M375.686 274.358C373.65 271.203 384.014 269.31 384.014 269.31L384.606 270.238C384.606 271.018 384.532 271.723 384.31 272.354C383.2 275.509 380.498 278.293 377.722 279.63C377.204 277.662 376.537 275.621 375.686 274.358Z" fill="#EF7F7F"/>
<path d="M378.166 251.678C378.388 251.456 386.235 264.374 384.347 269.719C382.46 275.027 376.13 279.296 372.392 277.403C368.246 275.287 361.954 260.476 365.729 254.203C369.505 247.892 378.166 251.678 378.166 251.678Z" fill="#FB9390"/>
<path d="M366.84 245.887C371.467 244.885 379.684 246.259 384.347 249.525C390.047 253.534 390.232 260.699 387.678 265.376C385.125 270.053 386.642 273.468 386.642 273.468C386.642 273.468 378.61 272.948 377.019 267.492C376.352 265.19 377.167 263.631 375.649 262.332C374.465 261.33 373.465 258.434 372.281 256.096C372.281 256.096 367.099 253.349 365.137 255.613C364.434 256.393 360.918 247.15 366.84 245.887Z" fill="#0B0754"/>
<path d="M374.798 263.334C375.501 265.004 376.871 266.044 377.833 265.636C378.795 265.227 379.054 263.52 378.351 261.849C377.648 260.179 376.278 259.139 375.316 259.548C374.317 259.956 374.095 261.664 374.798 263.334Z" fill="#FB9390"/>
<path d="M474.216 463.711C474.216 463.711 472.217 482.532 469.922 483.905C469.33 484.276 466.11 484.536 465.814 486.095C465.814 486.132 465.703 487.729 466.702 487.691L478.879 487.654C478.879 487.654 479.027 478.374 478.953 474.773C478.953 474.773 480.619 465.493 480.101 464.825C479.509 464.157 474.216 463.711 474.216 463.711Z" fill="#0B0754"/>
<path d="M205.239 376.775C195.579 356.507 192.914 326.216 203.463 302.236C221.229 261.701 270.087 245.182 266.496 199.264C265.608 187.682 260.463 178.402 252.913 172.388C233.036 156.649 201.02 164.964 178.183 175.989C163.599 183.005 150.052 192.99 137.542 205.908L131.176 124.8C158.602 105.274 191.766 95.0659 224.893 92.4675C292.739 87.1221 345.15 112.661 350.48 180.74C355.329 242.843 313.504 270.35 285.447 301.383C269.865 318.607 266.348 331.896 267.57 347.264C268.199 355.208 271.16 365.007 275.935 371.281L205.239 376.775ZM253.986 487.691C188.028 492.888 180.366 404.021 247.027 398.75C312.652 393.59 319.685 482.494 253.986 487.691Z" fill="#BA3FCA"/>
<path d="M322.165 248.04C322.054 247.484 322.498 247.929 321.646 243.549C321.387 242.287 320.61 240.95 320.018 240.245C319.685 239.874 318.982 239.206 318.537 238.946C317.797 238.5 317.205 239.243 317.353 239.651C317.501 240.059 318.278 241.507 318.426 241.915C318.574 242.324 318.648 243.363 318.315 243.697C317.982 244.031 312.504 237.758 312.171 237.201C311.875 236.718 311.246 234.677 311.246 234.677C311.246 234.677 310.765 233.192 310.172 233.563C309.802 233.823 309.358 235.048 310.468 237.461C311.431 239.577 312.763 241.247 312.615 241.359C312.208 241.693 309.839 238.834 309.839 238.834C309.839 238.834 309.025 237.238 308.433 236.681C308.063 235.642 307.433 234.306 306.767 234.825C306.656 234.937 307.1 237.164 307.1 237.164C307.1 237.164 307.914 238.649 308.285 239.391C308.914 240.69 310.32 242.249 310.802 243.103C311.209 243.809 310.802 243.623 310.765 243.734C310.728 243.809 310.135 243.029 309.21 241.878C308.729 241.284 308.1 240.765 307.655 239.985C307.248 239.28 306.545 238.426 306.101 237.869C304.879 236.384 304.213 237.387 305.138 238.946C305.509 239.54 305.879 240.171 306.286 240.839C307.84 243.363 309.765 245.331 309.58 245.553C309.321 245.85 306.027 242.064 306.027 242.064C306.027 242.064 303.695 240.505 305.101 242.806C306.693 245.479 308.433 247.149 308.544 247.224C309.099 247.706 310.542 249.971 312.689 251.307C314.836 252.68 318.315 254.759 318.315 254.759C318.722 255.242 319.722 256.801 321.128 259.028L326.347 252.755C324.534 250.861 322.276 248.449 322.165 248.04Z" fill="#FB9390"/>
<path d="M318.056 256.912L325.237 250.602L349.925 275.064C349.925 275.064 388.16 278.442 388.271 278.442L389.788 278.925C403.668 283.713 397.931 295.072 395.266 296.854C389.048 300.937 354.477 298.487 343.373 291.62C334.342 285.903 318.056 256.912 318.056 256.912Z" fill="#7C9AF2"/>
<path d="M315.169 47.5148L287.002 66.632C284.152 68.5622 280.266 67.8198 278.341 64.9615L259.279 36.7127C257.354 33.8544 258.094 29.9567 260.945 28.0265L289.112 8.90932C291.962 6.97905 295.848 7.72146 297.773 10.5798L316.835 38.8286C318.759 41.6869 318.019 45.5845 315.169 47.5148Z" fill="#FA7167"/>
<path d="M300.993 27.4693C305.916 34.7821 304.028 44.7304 296.736 49.6674C289.445 54.6045 279.525 52.7113 274.602 45.3986C269.68 38.0858 271.567 28.1375 278.859 23.2004C286.188 18.2634 296.07 20.1936 300.993 27.4693Z" fill="white"/>
<path d="M282.56 29.8823L289.112 37.0466C289.593 37.5663 289.556 38.383 289.038 38.8655C288.519 39.3481 287.705 39.311 287.224 38.7913C287.15 38.717 287.076 38.6057 287.039 38.5314L282.56 29.8823Z" fill="#FA7167"/>
<path d="M287.557 37.0837L297.403 31.5527L288.816 38.9026C288.334 39.311 287.668 39.2367 287.261 38.7913C286.854 38.3087 286.928 37.6405 287.372 37.2322C287.409 37.158 287.483 37.1208 287.557 37.0837Z" fill="#FA7167"/>
<path d="M8.14295 194.587C8.14295 196.591 6.32929 198.225 4.07147 198.225C1.81366 198.225 0 196.591 0 194.587C0 192.582 1.81366 190.949 4.07147 190.949C6.32929 190.949 8.14295 192.582 8.14295 194.587Z" fill="white"/>
<path d="M27.0568 194.587C27.0568 196.591 25.2431 198.224 22.9853 198.224C20.7275 198.224 18.9138 196.591 18.9138 194.587C18.9138 192.582 20.7275 190.949 22.9853 190.949C25.2431 190.949 27.0568 192.582 27.0568 194.587Z" fill="white"/>
<path d="M45.9707 194.587C45.9707 196.591 44.157 198.224 41.8992 198.224C39.6414 198.224 37.8277 196.591 37.8277 194.587C37.8277 192.582 39.6414 190.949 41.8992 190.949C44.157 190.949 45.9707 192.582 45.9707 194.587Z" fill="white"/>
<path d="M250.248 9.65137L246.435 1.48483L249.618 0L251.765 4.60296L257.058 1.41059L258.872 4.41736L250.248 9.65137Z" fill="#BED1F9"/>
<path d="M48.1544 169.27L39.6783 172.314L38.4939 168.973L43.3056 167.266L40.6037 161.661L43.7868 160.139L48.1544 169.27Z" fill="#FA7167"/>
<path d="M385.347 44.9158C385.976 46.9203 386.605 48.9619 387.234 50.9665C387.715 52.5255 388.086 55.0868 389.64 56.0149C390.01 56.2376 390.64 56.1262 390.862 55.6808C391.639 54.0104 390.529 51.8573 390.01 50.224C389.381 48.2195 388.715 46.215 388.086 44.1734C387.493 42.4658 384.791 43.1711 385.347 44.9158Z" fill="#92B5F9"/>
<path d="M406.592 42.7263C403.335 53.8625 403.298 53.5284 403.557 54.6791C403.742 55.57 404.964 55.8299 405.556 55.1988C406.333 54.4193 406.111 54.642 409.257 43.4687C409.738 41.7611 407.11 41.0187 406.592 42.7263Z" fill="#92B5F9"/>
<path d="M419.029 67.5228C420.953 66.5948 422.878 65.6667 424.766 64.7387C426.469 63.9221 428.689 63.2539 429.837 61.6948C430.355 61.0266 429.652 60.0986 428.911 60.0986C427.024 60.0244 424.988 61.5092 423.359 62.2888C421.435 63.2168 419.547 64.1448 417.622 65.0728C415.994 65.9266 417.4 68.3023 419.029 67.5228Z" fill="#92B5F9"/>
<path d="M412.736 101.005C414.698 103.567 416.66 106.165 418.918 108.467C420.102 109.729 421.842 107.873 420.805 106.573C418.733 104.086 416.623 101.673 414.624 99.1122C413.551 97.8129 411.7 99.669 412.736 101.005Z" fill="#92B5F9"/>
<path d="M419.954 88.0132C421.731 88.7927 423.544 89.5351 425.321 90.2404C426.987 90.8715 428.911 92.0593 430.725 91.7995C431.687 91.651 431.798 90.3889 431.243 89.795C430.577 89.0526 430.207 89.1268 426.283 87.6049C424.507 86.9367 422.767 86.1943 420.991 85.5261C419.584 84.9693 418.548 87.3821 419.954 88.0132Z" fill="#92B5F9"/>
</svg>
